<mxfile host="app.diagrams.net" modified="2023-04-18T22:38:47.044Z" agent="Mozilla/5.0 (Windows NT 10.0; Win64; x64; rv:109.0) Gecko/20100101 Firefox/112.0" etag="Z9RtkCysLm0t7CacksVC" version="21.1.8">
  <diagram id="C5RBs43oDa-KdzZeNtuy" name="Page-1">
    <mxGraphModel dx="1889" dy="579" grid="1" gridSize="10" guides="1" tooltips="1" connect="1" arrows="1" fold="1" page="1" pageScale="1" pageWidth="827" pageHeight="1169" math="0" shadow="0">
      <root>
        <mxCell id="WIyWlLk6GJQsqaUBKTNV-0" />
        <mxCell id="WIyWlLk6GJQsqaUBKTNV-1" parent="WIyWlLk6GJQsqaUBKTNV-0" />
        <mxCell id="zkfFHV4jXpPFQw0GAbJ--0" value="Model" style="swimlane;fontStyle=2;align=center;verticalAlign=top;childLayout=stackLayout;horizontal=1;startSize=26;horizontalStack=0;resizeParent=1;resizeLast=0;collapsible=1;marginBottom=0;rounded=0;shadow=0;strokeWidth=1;fillColor=#e1d5e7;strokeColor=#9673a6;" parent="WIyWlLk6GJQsqaUBKTNV-1" vertex="1">
          <mxGeometry x="238" y="860" width="540" height="390" as="geometry">
            <mxRectangle x="230" y="140" width="160" height="26" as="alternateBounds" />
          </mxGeometry>
        </mxCell>
        <mxCell id="zkfFHV4jXpPFQw0GAbJ--1" value="positionAttributeID: GLint;&#xa;    normalAttributeID: GLint;&#xa;    textureAttributeID: GLint;&#xa;    positionBuffer: WebGLBuffer;&#xa;    normalBuffer: WebGLBuffer;&#xa;    indexBuffer: WebGLBuffer;&#xa;    textureBuffer: WebGLBuffer;&#xa;    numVertices: GLint;&#xa;    numIndices: GLint;&#xa;    texture: WebGLTexture;&#xa;    image: HTMLImageElement;&#xa;    gl: WebGLRenderingContext;&#xa;    drawmode: number;" style="text;align=left;verticalAlign=top;spacingLeft=4;spacingRight=4;overflow=hidden;rotatable=0;points=[[0,0.5],[1,0.5]];portConstraint=eastwest;" parent="zkfFHV4jXpPFQw0GAbJ--0" vertex="1">
          <mxGeometry y="26" width="540" height="194" as="geometry" />
        </mxCell>
        <mxCell id="zkfFHV4jXpPFQw0GAbJ--4" value="" style="line;html=1;strokeWidth=1;align=left;verticalAlign=middle;spacingTop=-1;spacingLeft=3;spacingRight=3;rotatable=1;labelPosition=right;points=[];portConstraint=eastwest;movable=1;resizable=1;deletable=1;editable=1;connectable=1;" parent="zkfFHV4jXpPFQw0GAbJ--0" vertex="1">
          <mxGeometry y="220" width="540" height="8" as="geometry" />
        </mxCell>
        <mxCell id="ddMBwT2aPCV6fHb5aI7i-5" value="Constructor(newPositionAttributeID, newNormalAttributeID, newTextureAttributeID, newDrawMode)" style="text;align=left;verticalAlign=top;spacingLeft=4;spacingRight=4;overflow=hidden;rotatable=0;points=[[0,0.5],[1,0.5]];portConstraint=eastwest;rounded=0;shadow=0;html=0;" parent="zkfFHV4jXpPFQw0GAbJ--0" vertex="1">
          <mxGeometry y="228" width="540" height="26" as="geometry" />
        </mxCell>
        <mxCell id="ddMBwT2aPCV6fHb5aI7i-6" value="init(vertexData, indexData, normalData, textureCord, glRef, texImageURL?)" style="text;align=left;verticalAlign=top;spacingLeft=4;spacingRight=4;overflow=hidden;rotatable=0;points=[[0,0.5],[1,0.5]];portConstraint=eastwest;rounded=0;shadow=0;html=0;" parent="zkfFHV4jXpPFQw0GAbJ--0" vertex="1">
          <mxGeometry y="254" width="540" height="26" as="geometry" />
        </mxCell>
        <mxCell id="ddMBwT2aPCV6fHb5aI7i-7" value="render()" style="text;align=left;verticalAlign=top;spacingLeft=4;spacingRight=4;overflow=hidden;rotatable=0;points=[[0,0.5],[1,0.5]];portConstraint=eastwest;rounded=0;shadow=0;html=0;" parent="zkfFHV4jXpPFQw0GAbJ--0" vertex="1">
          <mxGeometry y="280" width="540" height="26" as="geometry" />
        </mxCell>
        <mxCell id="kNZhg2Wre565YQw0Qz7j-83" style="edgeStyle=orthogonalEdgeStyle;rounded=0;orthogonalLoop=1;jettySize=auto;html=1;exitX=0;exitY=0.25;exitDx=0;exitDy=0;" edge="1" parent="WIyWlLk6GJQsqaUBKTNV-1" source="ddMBwT2aPCV6fHb5aI7i-36">
          <mxGeometry relative="1" as="geometry">
            <mxPoint x="-160" y="897.6382978723404" as="targetPoint" />
          </mxGeometry>
        </mxCell>
        <mxCell id="ddMBwT2aPCV6fHb5aI7i-36" value="index.ts" style="swimlane;fontStyle=2;align=center;verticalAlign=top;childLayout=stackLayout;horizontal=1;startSize=26;horizontalStack=0;resizeParent=1;resizeLast=0;collapsible=1;marginBottom=0;rounded=0;shadow=0;strokeWidth=1;fillColor=#f5f5f5;strokeColor=#666666;fontColor=#333333;" parent="WIyWlLk6GJQsqaUBKTNV-1" vertex="1">
          <mxGeometry x="-100" y="680" width="300" height="870" as="geometry">
            <mxRectangle x="230" y="140" width="160" height="26" as="alternateBounds" />
          </mxGeometry>
        </mxCell>
        <mxCell id="kNZhg2Wre565YQw0Qz7j-69" value="&lt;div align=&quot;left&quot;&gt;&lt;pre&gt;&lt;font face=&quot;Helvetica&quot;&gt;glyph; &lt;br&gt;Fonts; &lt;br&gt;gl: WebGLRenderingContext;&lt;br&gt;canvas: HTMLCanvasElement;&lt;br&gt;screen: HTMLElement;&lt;br&gt;programs: WebGLProgram[];&lt;br&gt;num_of_programs;&lt;br&gt;pickingBuffer; &lt;br&gt;pickingTexture; &lt;br&gt;rect; &lt;br&gt;prevselectedPointID;  &lt;br&gt;selectedPointID; &lt;br&gt;selectedPos;  &lt;br&gt;modelUniformID: WebGLUniformLocation;&lt;br&gt;viewUniformID: WebGLUniformLocation;&lt;br&gt;projectionUniformID: WebGLUniformLocation;&lt;br&gt;lightToggleUniformID: WebGLUniformLocation;&lt;br&gt;colourUniformID: WebGLUniformLocation;&lt;br&gt;cameraRightWorldSpaceUniformID: &lt;br&gt;WebGLUniformLocation;&lt;br&gt;cameraUpWorldSpaceUniformID: &lt;br&gt;WebGLUniformLocation;&lt;br&gt;viewmodUniformID: WebGLUniformLocation;&lt;br&gt;idUniformID: WebGLUniformLocation;&lt;br&gt;positionAttributeID: GLint[];&lt;br&gt;normalAttributeID: GLint[];&lt;br&gt;textureAttributeID: GLint[];&lt;br&gt;C: Controls;&lt;br&gt;Point, Cube, Dice, Cone, Axis;&lt;br&gt;AxisLabels: Model[], AxisValues: Model[][], &lt;br&gt;AxisMap: Number[], AxisNames: Model[][]; &lt;br&gt;positiveColour,negativeColour,altColour;&lt;/font&gt;&lt;/pre&gt;&lt;/div&gt;" style="text;html=1;strokeColor=none;fillColor=none;align=left;verticalAlign=middle;whiteSpace=wrap;rounded=0;" vertex="1" parent="ddMBwT2aPCV6fHb5aI7i-36">
          <mxGeometry y="26" width="300" height="464" as="geometry" />
        </mxCell>
        <mxCell id="kNZhg2Wre565YQw0Qz7j-65" value="" style="line;html=1;strokeWidth=1;align=left;verticalAlign=middle;spacingTop=-1;spacingLeft=3;spacingRight=3;rotatable=1;labelPosition=right;points=[];portConstraint=eastwest;movable=1;resizable=1;deletable=1;editable=1;connectable=1;" vertex="1" parent="ddMBwT2aPCV6fHb5aI7i-36">
          <mxGeometry y="490" width="300" height="8" as="geometry" />
        </mxCell>
        <mxCell id="ddMBwT2aPCV6fHb5aI7i-51" value="async main()&#xa;" style="text;align=left;verticalAlign=top;spacingLeft=4;spacingRight=4;overflow=hidden;rotatable=0;points=[[0,0.5],[1,0.5]];portConstraint=eastwest;" parent="ddMBwT2aPCV6fHb5aI7i-36" vertex="1">
          <mxGeometry y="498" width="300" height="24" as="geometry" />
        </mxCell>
        <mxCell id="928VX1cfAJ5bRDj-DPxS-13" value="setAxisNames()" style="text;align=left;verticalAlign=top;spacingLeft=4;spacingRight=4;overflow=hidden;rotatable=0;points=[[0,0.5],[1,0.5]];portConstraint=eastwest;" parent="ddMBwT2aPCV6fHb5aI7i-36" vertex="1">
          <mxGeometry y="522" width="300" height="24" as="geometry" />
        </mxCell>
        <mxCell id="928VX1cfAJ5bRDj-DPxS-14" value="generateAxisValuesAt(i, mod, controller)&#xa;" style="text;align=left;verticalAlign=top;spacingLeft=4;spacingRight=4;overflow=hidden;rotatable=0;points=[[0,0.5],[1,0.5]];portConstraint=eastwest;" parent="ddMBwT2aPCV6fHb5aI7i-36" vertex="1">
          <mxGeometry y="546" width="300" height="24" as="geometry" />
        </mxCell>
        <mxCell id="kNZhg2Wre565YQw0Qz7j-78" style="edgeStyle=orthogonalEdgeStyle;rounded=0;orthogonalLoop=1;jettySize=auto;html=1;exitX=1;exitY=0.5;exitDx=0;exitDy=0;" edge="1" parent="ddMBwT2aPCV6fHb5aI7i-36" source="kNZhg2Wre565YQw0Qz7j-0">
          <mxGeometry relative="1" as="geometry">
            <mxPoint x="920" y="560" as="targetPoint" />
          </mxGeometry>
        </mxCell>
        <mxCell id="kNZhg2Wre565YQw0Qz7j-0" value="setAxisValues()" style="text;align=left;verticalAlign=top;spacingLeft=4;spacingRight=4;overflow=hidden;rotatable=0;points=[[0,0.5],[1,0.5]];portConstraint=eastwest;" vertex="1" parent="ddMBwT2aPCV6fHb5aI7i-36">
          <mxGeometry y="570" width="300" height="24" as="geometry" />
        </mxCell>
        <mxCell id="ddMBwT2aPCV6fHb5aI7i-52" value="Render(timestamp)" style="text;align=left;verticalAlign=top;spacingLeft=4;spacingRight=4;overflow=hidden;rotatable=0;points=[[0,0.5],[1,0.5]];portConstraint=eastwest;" parent="ddMBwT2aPCV6fHb5aI7i-36" vertex="1">
          <mxGeometry y="594" width="300" height="24" as="geometry" />
        </mxCell>
        <mxCell id="kNZhg2Wre565YQw0Qz7j-1" value="RenderData(global_model, pickingPass)" style="text;align=left;verticalAlign=top;spacingLeft=4;spacingRight=4;overflow=hidden;rotatable=0;points=[[0,0.5],[1,0.5]];portConstraint=eastwest;" vertex="1" parent="ddMBwT2aPCV6fHb5aI7i-36">
          <mxGeometry y="618" width="300" height="24" as="geometry" />
        </mxCell>
        <mxCell id="kNZhg2Wre565YQw0Qz7j-2" value="RenderAxisText(global_model, view)" style="text;align=left;verticalAlign=top;spacingLeft=4;spacingRight=4;overflow=hidden;rotatable=0;points=[[0,0.5],[1,0.5]];portConstraint=eastwest;" vertex="1" parent="ddMBwT2aPCV6fHb5aI7i-36">
          <mxGeometry y="642" width="300" height="24" as="geometry" />
        </mxCell>
        <mxCell id="kNZhg2Wre565YQw0Qz7j-3" value="RenderStructure(global_model)" style="text;align=left;verticalAlign=top;spacingLeft=4;spacingRight=4;overflow=hidden;rotatable=0;points=[[0,0.5],[1,0.5]];portConstraint=eastwest;" vertex="1" parent="ddMBwT2aPCV6fHb5aI7i-36">
          <mxGeometry y="666" width="300" height="24" as="geometry" />
        </mxCell>
        <mxCell id="ddMBwT2aPCV6fHb5aI7i-53" value="init()" style="text;align=left;verticalAlign=top;spacingLeft=4;spacingRight=4;overflow=hidden;rotatable=0;points=[[0,0.5],[1,0.5]];portConstraint=eastwest;" parent="ddMBwT2aPCV6fHb5aI7i-36" vertex="1">
          <mxGeometry y="690" width="300" height="24" as="geometry" />
        </mxCell>
        <mxCell id="ddMBwT2aPCV6fHb5aI7i-55" value="createShader(gl, type, source)" style="text;align=left;verticalAlign=top;spacingLeft=4;spacingRight=4;overflow=hidden;rotatable=0;points=[[0,0.5],[1,0.5]];portConstraint=eastwest;" parent="ddMBwT2aPCV6fHb5aI7i-36" vertex="1">
          <mxGeometry y="714" width="300" height="24" as="geometry" />
        </mxCell>
        <mxCell id="ddMBwT2aPCV6fHb5aI7i-54" value="createProgram(gl, vertexShader, fragmentShader)" style="text;align=left;verticalAlign=top;spacingLeft=4;spacingRight=4;overflow=hidden;rotatable=0;points=[[0,0.5],[1,0.5]];portConstraint=eastwest;" parent="ddMBwT2aPCV6fHb5aI7i-36" vertex="1">
          <mxGeometry y="738" width="300" height="24" as="geometry" />
        </mxCell>
        <mxCell id="kNZhg2Wre565YQw0Qz7j-6" value="eraseRotation(matrix)" style="text;align=left;verticalAlign=top;spacingLeft=4;spacingRight=4;overflow=hidden;rotatable=0;points=[[0,0.5],[1,0.5]];portConstraint=eastwest;" vertex="1" parent="ddMBwT2aPCV6fHb5aI7i-36">
          <mxGeometry y="762" width="300" height="24" as="geometry" />
        </mxCell>
        <mxCell id="kNZhg2Wre565YQw0Qz7j-7" value="SquashNumber(value)" style="text;align=left;verticalAlign=top;spacingLeft=4;spacingRight=4;overflow=hidden;rotatable=0;points=[[0,0.5],[1,0.5]];portConstraint=eastwest;" vertex="1" parent="ddMBwT2aPCV6fHb5aI7i-36">
          <mxGeometry y="786" width="300" height="24" as="geometry" />
        </mxCell>
        <mxCell id="kNZhg2Wre565YQw0Qz7j-9" value="resizeCanvasToDisplaySize(canvas)" style="text;align=left;verticalAlign=top;spacingLeft=4;spacingRight=4;overflow=hidden;rotatable=0;points=[[0,0.5],[1,0.5]];portConstraint=eastwest;" vertex="1" parent="ddMBwT2aPCV6fHb5aI7i-36">
          <mxGeometry y="810" width="300" height="24" as="geometry" />
        </mxCell>
        <mxCell id="kNZhg2Wre565YQw0Qz7j-10" value="getPixelsAtClick(x, y)" style="text;align=left;verticalAlign=top;spacingLeft=4;spacingRight=4;overflow=hidden;rotatable=0;points=[[0,0.5],[1,0.5]];portConstraint=eastwest;" vertex="1" parent="ddMBwT2aPCV6fHb5aI7i-36">
          <mxGeometry y="834" width="300" height="24" as="geometry" />
        </mxCell>
        <mxCell id="kNZhg2Wre565YQw0Qz7j-85" style="edgeStyle=orthogonalEdgeStyle;rounded=0;orthogonalLoop=1;jettySize=auto;html=1;exitX=0.25;exitY=0;exitDx=0;exitDy=0;entryX=1;entryY=0.909;entryDx=0;entryDy=0;entryPerimeter=0;" edge="1" parent="WIyWlLk6GJQsqaUBKTNV-1" source="ddMBwT2aPCV6fHb5aI7i-48" target="ddMBwT2aPCV6fHb5aI7i-52">
          <mxGeometry relative="1" as="geometry" />
        </mxCell>
        <mxCell id="ddMBwT2aPCV6fHb5aI7i-48" value="Loader.ts" style="swimlane;fontStyle=2;align=center;verticalAlign=top;childLayout=stackLayout;horizontal=1;startSize=26;horizontalStack=0;resizeParent=1;resizeLast=0;collapsible=1;marginBottom=0;rounded=0;shadow=0;strokeWidth=1;fillColor=#f5f5f5;strokeColor=#666666;fontColor=#333333;" parent="WIyWlLk6GJQsqaUBKTNV-1" vertex="1">
          <mxGeometry x="608" y="1390" width="300" height="160" as="geometry">
            <mxRectangle x="230" y="140" width="160" height="26" as="alternateBounds" />
          </mxGeometry>
        </mxCell>
        <mxCell id="kNZhg2Wre565YQw0Qz7j-14" value="&lt;div align=&quot;left&quot;&gt;DATASET: number[][]&lt;/div&gt;" style="text;html=1;strokeColor=none;fillColor=none;align=left;verticalAlign=middle;whiteSpace=wrap;rounded=0;" vertex="1" parent="ddMBwT2aPCV6fHb5aI7i-48">
          <mxGeometry y="26" width="300" height="30" as="geometry" />
        </mxCell>
        <mxCell id="kNZhg2Wre565YQw0Qz7j-11" value="" style="line;html=1;strokeWidth=1;align=left;verticalAlign=middle;spacingTop=-1;spacingLeft=3;spacingRight=3;rotatable=1;labelPosition=right;points=[];portConstraint=eastwest;movable=1;resizable=1;deletable=1;editable=1;connectable=1;" vertex="1" parent="ddMBwT2aPCV6fHb5aI7i-48">
          <mxGeometry y="56" width="300" height="8" as="geometry" />
        </mxCell>
        <mxCell id="ddMBwT2aPCV6fHb5aI7i-49" value="async LoadOBJ(model: string)" style="text;align=left;verticalAlign=top;spacingLeft=4;spacingRight=4;overflow=hidden;rotatable=0;points=[[0,0.5],[1,0.5]];portConstraint=eastwest;" parent="ddMBwT2aPCV6fHb5aI7i-48" vertex="1">
          <mxGeometry y="64" width="300" height="24" as="geometry" />
        </mxCell>
        <mxCell id="kNZhg2Wre565YQw0Qz7j-12" value="async read_CSV()" style="text;align=left;verticalAlign=top;spacingLeft=4;spacingRight=4;overflow=hidden;rotatable=0;points=[[0,0.5],[1,0.5]];portConstraint=eastwest;" vertex="1" parent="ddMBwT2aPCV6fHb5aI7i-48">
          <mxGeometry y="88" width="300" height="24" as="geometry" />
        </mxCell>
        <mxCell id="kNZhg2Wre565YQw0Qz7j-13" value="InstantReadCSV()" style="text;align=left;verticalAlign=top;spacingLeft=4;spacingRight=4;overflow=hidden;rotatable=0;points=[[0,0.5],[1,0.5]];portConstraint=eastwest;" vertex="1" parent="ddMBwT2aPCV6fHb5aI7i-48">
          <mxGeometry y="112" width="300" height="24" as="geometry" />
        </mxCell>
        <mxCell id="ddMBwT2aPCV6fHb5aI7i-50" value="async ReadFile(model: string)" style="text;align=left;verticalAlign=top;spacingLeft=4;spacingRight=4;overflow=hidden;rotatable=0;points=[[0,0.5],[1,0.5]];portConstraint=eastwest;" parent="ddMBwT2aPCV6fHb5aI7i-48" vertex="1">
          <mxGeometry y="136" width="300" height="24" as="geometry" />
        </mxCell>
        <mxCell id="ddMBwT2aPCV6fHb5aI7i-64" value="" style="group" parent="WIyWlLk6GJQsqaUBKTNV-1" vertex="1" connectable="0">
          <mxGeometry x="-240" y="1490" width="80" height="60" as="geometry" />
        </mxCell>
        <mxCell id="ddMBwT2aPCV6fHb5aI7i-60" value="" style="rounded=0;whiteSpace=wrap;html=1;fillColor=#f5f5f5;fontColor=#333333;strokeColor=#666666;" parent="ddMBwT2aPCV6fHb5aI7i-64" vertex="1">
          <mxGeometry y="5" width="20" height="20" as="geometry" />
        </mxCell>
        <mxCell id="ddMBwT2aPCV6fHb5aI7i-61" value="Scripts" style="text;html=1;strokeColor=none;fillColor=none;align=center;verticalAlign=middle;whiteSpace=wrap;rounded=0;" parent="ddMBwT2aPCV6fHb5aI7i-64" vertex="1">
          <mxGeometry x="20" width="60" height="30" as="geometry" />
        </mxCell>
        <mxCell id="ddMBwT2aPCV6fHb5aI7i-62" value="" style="rounded=0;whiteSpace=wrap;html=1;fillColor=#e1d5e7;strokeColor=#9673a6;" parent="ddMBwT2aPCV6fHb5aI7i-64" vertex="1">
          <mxGeometry y="35" width="20" height="20" as="geometry" />
        </mxCell>
        <mxCell id="ddMBwT2aPCV6fHb5aI7i-63" value="Class" style="text;html=1;strokeColor=none;fillColor=none;align=center;verticalAlign=middle;whiteSpace=wrap;rounded=0;" parent="ddMBwT2aPCV6fHb5aI7i-64" vertex="1">
          <mxGeometry x="20" y="30" width="60" height="30" as="geometry" />
        </mxCell>
        <mxCell id="928VX1cfAJ5bRDj-DPxS-2" value="Text" style="swimlane;fontStyle=2;align=center;verticalAlign=top;childLayout=stackLayout;horizontal=1;startSize=26;horizontalStack=0;resizeParent=1;resizeLast=0;collapsible=1;marginBottom=0;rounded=0;shadow=0;strokeWidth=1;fillColor=#e1d5e7;strokeColor=#9673a6;" parent="WIyWlLk6GJQsqaUBKTNV-1" vertex="1">
          <mxGeometry x="238" y="1390" width="350" height="160" as="geometry">
            <mxRectangle x="230" y="140" width="160" height="26" as="alternateBounds" />
          </mxGeometry>
        </mxCell>
        <mxCell id="kNZhg2Wre565YQw0Qz7j-66" value="    ID: number;&#xa;    parentDiv: HTMLDivElement;&#xa;    canvasWidth: number;&#xa;    canvasHeight: number;" style="text;align=left;verticalAlign=top;spacingLeft=4;spacingRight=4;overflow=hidden;rotatable=0;points=[[0,0.5],[1,0.5]];portConstraint=eastwest;" vertex="1" parent="928VX1cfAJ5bRDj-DPxS-2">
          <mxGeometry y="26" width="350" height="64" as="geometry" />
        </mxCell>
        <mxCell id="kNZhg2Wre565YQw0Qz7j-67" value="" style="line;html=1;strokeWidth=1;align=left;verticalAlign=middle;spacingTop=-1;spacingLeft=3;spacingRight=3;rotatable=1;labelPosition=right;points=[];portConstraint=eastwest;movable=1;resizable=1;deletable=1;editable=1;connectable=1;" vertex="1" parent="928VX1cfAJ5bRDj-DPxS-2">
          <mxGeometry y="90" width="350" height="8" as="geometry" />
        </mxCell>
        <mxCell id="928VX1cfAJ5bRDj-DPxS-3" value="constructor(set_ID, set_canvasWidth, set_canvasHeight)" style="text;align=left;verticalAlign=top;spacingLeft=4;spacingRight=4;overflow=hidden;rotatable=0;points=[[0,0.5],[1,0.5]];portConstraint=eastwest;" parent="928VX1cfAJ5bRDj-DPxS-2" vertex="1">
          <mxGeometry y="98" width="350" height="24" as="geometry" />
        </mxCell>
        <mxCell id="928VX1cfAJ5bRDj-DPxS-4" value="render(position, model, view, projection, value) {" style="text;align=left;verticalAlign=top;spacingLeft=4;spacingRight=4;overflow=hidden;rotatable=0;points=[[0,0.5],[1,0.5]];portConstraint=eastwest;" parent="928VX1cfAJ5bRDj-DPxS-2" vertex="1">
          <mxGeometry y="122" width="350" height="24" as="geometry" />
        </mxCell>
        <mxCell id="kNZhg2Wre565YQw0Qz7j-79" style="edgeStyle=orthogonalEdgeStyle;rounded=0;orthogonalLoop=1;jettySize=auto;html=1;exitX=0.5;exitY=0;exitDx=0;exitDy=0;exitPerimeter=0;entryX=0.75;entryY=0;entryDx=0;entryDy=0;" edge="1" parent="WIyWlLk6GJQsqaUBKTNV-1" source="928VX1cfAJ5bRDj-DPxS-6" target="kNZhg2Wre565YQw0Qz7j-23">
          <mxGeometry relative="1" as="geometry" />
        </mxCell>
        <mxCell id="928VX1cfAJ5bRDj-DPxS-6" value="index.html" style="shape=note;whiteSpace=wrap;html=1;backgroundOutline=1;darkOpacity=0.05;" parent="WIyWlLk6GJQsqaUBKTNV-1" vertex="1">
          <mxGeometry x="788" y="685" width="80" height="100" as="geometry" />
        </mxCell>
        <mxCell id="928VX1cfAJ5bRDj-DPxS-11" value="style.css" style="shape=note;whiteSpace=wrap;html=1;backgroundOutline=1;darkOpacity=0.05;" parent="WIyWlLk6GJQsqaUBKTNV-1" vertex="1">
          <mxGeometry x="908" y="685" width="80" height="100" as="geometry" />
        </mxCell>
        <mxCell id="kNZhg2Wre565YQw0Qz7j-84" style="edgeStyle=orthogonalEdgeStyle;rounded=0;orthogonalLoop=1;jettySize=auto;html=1;exitX=0.25;exitY=1;exitDx=0;exitDy=0;entryX=0.997;entryY=0.045;entryDx=0;entryDy=0;entryPerimeter=0;" edge="1" parent="WIyWlLk6GJQsqaUBKTNV-1" source="kNZhg2Wre565YQw0Qz7j-15" target="ddMBwT2aPCV6fHb5aI7i-52">
          <mxGeometry relative="1" as="geometry" />
        </mxCell>
        <mxCell id="kNZhg2Wre565YQw0Qz7j-15" value="Font" style="swimlane;fontStyle=2;align=center;verticalAlign=top;childLayout=stackLayout;horizontal=1;startSize=26;horizontalStack=0;resizeParent=1;resizeLast=0;collapsible=1;marginBottom=0;rounded=0;shadow=0;strokeWidth=1;fillColor=#e1d5e7;strokeColor=#9673a6;" vertex="1" parent="WIyWlLk6GJQsqaUBKTNV-1">
          <mxGeometry x="800" y="860" width="290" height="390" as="geometry">
            <mxRectangle x="230" y="140" width="160" height="26" as="alternateBounds" />
          </mxGeometry>
        </mxCell>
        <mxCell id="kNZhg2Wre565YQw0Qz7j-16" value="    font_option: number;&#xa;    font_pointers;&#xa;    font_data_pointers;&#xa;    textureID: WebGLTexture;&#xa;    textureBuffer: WebGLBuffer;&#xa;    textureCord: number[];&#xa;    image: HTMLImageElement;&#xa;    gl: WebGLRenderingContext;&#xa;&#xa;    glyph: number[][];&#xa;    short_glyph: number[][];&#xa;    thin_glyph: number[][];" style="text;align=left;verticalAlign=top;spacingLeft=4;spacingRight=4;overflow=hidden;rotatable=0;points=[[0,0.5],[1,0.5]];portConstraint=eastwest;" vertex="1" parent="kNZhg2Wre565YQw0Qz7j-15">
          <mxGeometry y="26" width="290" height="194" as="geometry" />
        </mxCell>
        <mxCell id="kNZhg2Wre565YQw0Qz7j-17" value="" style="line;html=1;strokeWidth=1;align=left;verticalAlign=middle;spacingTop=-1;spacingLeft=3;spacingRight=3;rotatable=1;labelPosition=right;points=[];portConstraint=eastwest;movable=1;resizable=1;deletable=1;editable=1;connectable=1;" vertex="1" parent="kNZhg2Wre565YQw0Qz7j-15">
          <mxGeometry y="220" width="290" height="8" as="geometry" />
        </mxCell>
        <mxCell id="kNZhg2Wre565YQw0Qz7j-18" value="constructor(set_font_option, set_gl, loadedGlyph) " style="text;align=left;verticalAlign=top;spacingLeft=4;spacingRight=4;overflow=hidden;rotatable=0;points=[[0,0.5],[1,0.5]];portConstraint=eastwest;rounded=0;shadow=0;html=0;" vertex="1" parent="kNZhg2Wre565YQw0Qz7j-15">
          <mxGeometry y="228" width="290" height="26" as="geometry" />
        </mxCell>
        <mxCell id="kNZhg2Wre565YQw0Qz7j-19" value="init(num, custom_height?)" style="text;align=left;verticalAlign=top;spacingLeft=4;spacingRight=4;overflow=hidden;rotatable=0;points=[[0,0.5],[1,0.5]];portConstraint=eastwest;rounded=0;shadow=0;html=0;" vertex="1" parent="kNZhg2Wre565YQw0Qz7j-15">
          <mxGeometry y="254" width="290" height="26" as="geometry" />
        </mxCell>
        <mxCell id="kNZhg2Wre565YQw0Qz7j-20" value="getTextureCords()" style="text;align=left;verticalAlign=top;spacingLeft=4;spacingRight=4;overflow=hidden;rotatable=0;points=[[0,0.5],[1,0.5]];portConstraint=eastwest;rounded=0;shadow=0;html=0;" vertex="1" parent="kNZhg2Wre565YQw0Qz7j-15">
          <mxGeometry y="280" width="290" height="26" as="geometry" />
        </mxCell>
        <mxCell id="kNZhg2Wre565YQw0Qz7j-21" value="getImage()" style="text;align=left;verticalAlign=top;spacingLeft=4;spacingRight=4;overflow=hidden;rotatable=0;points=[[0,0.5],[1,0.5]];portConstraint=eastwest;rounded=0;shadow=0;html=0;" vertex="1" parent="kNZhg2Wre565YQw0Qz7j-15">
          <mxGeometry y="306" width="290" height="26" as="geometry" />
        </mxCell>
        <mxCell id="kNZhg2Wre565YQw0Qz7j-22" value="getGlyph()" style="text;align=left;verticalAlign=top;spacingLeft=4;spacingRight=4;overflow=hidden;rotatable=0;points=[[0,0.5],[1,0.5]];portConstraint=eastwest;rounded=0;shadow=0;html=0;" vertex="1" parent="kNZhg2Wre565YQw0Qz7j-15">
          <mxGeometry y="332" width="290" height="26" as="geometry" />
        </mxCell>
        <mxCell id="kNZhg2Wre565YQw0Qz7j-81" style="edgeStyle=orthogonalEdgeStyle;rounded=0;orthogonalLoop=1;jettySize=auto;html=1;exitX=0.5;exitY=0;exitDx=0;exitDy=0;entryX=0;entryY=0;entryDx=25;entryDy=0;entryPerimeter=0;" edge="1" parent="WIyWlLk6GJQsqaUBKTNV-1" source="kNZhg2Wre565YQw0Qz7j-23" target="928VX1cfAJ5bRDj-DPxS-6">
          <mxGeometry relative="1" as="geometry">
            <mxPoint x="80" y="590" as="targetPoint" />
          </mxGeometry>
        </mxCell>
        <mxCell id="kNZhg2Wre565YQw0Qz7j-23" value="Control" style="swimlane;fontStyle=2;align=center;verticalAlign=top;childLayout=stackLayout;horizontal=1;startSize=26;horizontalStack=0;resizeParent=1;resizeLast=0;collapsible=1;marginBottom=0;rounded=0;shadow=0;strokeWidth=1;fillColor=#e1d5e7;strokeColor=#9673a6;" vertex="1" parent="WIyWlLk6GJQsqaUBKTNV-1">
          <mxGeometry x="-770" y="680" width="610" height="760" as="geometry">
            <mxRectangle x="230" y="140" width="160" height="26" as="alternateBounds" />
          </mxGeometry>
        </mxCell>
        <mxCell id="kNZhg2Wre565YQw0Qz7j-24" value="    currentTab: number; &#xa;    viewTab: HTMLDivElement;&#xa;    dataTab: HTMLDivElement;&#xa;    helpTab: HTMLDivElement;&#xa;    updateNeedDataTab: boolean;&#xa;    table: string; &#xa;    tableElement: HTMLDivElement; &#xa;    dimensionOptions: string[]; &#xa;    xSelect, ySelect, zSelect, cSelect, aSelect; &#xa;    colourMod, canvas;&#xa;    x_rotation, y_rotation;&#xa;    x_move, y_move, z_move;&#xa;    align;&#xa;    xIndex, yIndex, zIndex, cIndex, aIndex;&#xa;    current_x_rotation, current_y_rotation;&#xa;    mouse_x, mouse_y;&#xa;    mouseClickX, mouseClickY;&#xa;    zoom,  zoomMultiplier, combinedZoom; &#xa;    viewsize, pointsize; &#xa;    updateNames; &#xa;    updateAxisFunc: Function; &#xa;    updateAxisNamesFunc: Function; &#xa;    getPixelsFunc: Function;  " style="text;align=left;verticalAlign=top;spacingLeft=4;spacingRight=4;overflow=hidden;rotatable=0;points=[[0,0.5],[1,0.5]];portConstraint=eastwest;fontSize=12;" vertex="1" parent="kNZhg2Wre565YQw0Qz7j-23">
          <mxGeometry y="26" width="610" height="344" as="geometry" />
        </mxCell>
        <mxCell id="kNZhg2Wre565YQw0Qz7j-25" value="" style="line;html=1;strokeWidth=1;align=left;verticalAlign=middle;spacingTop=-1;spacingLeft=3;spacingRight=3;rotatable=1;labelPosition=right;points=[];portConstraint=eastwest;movable=1;resizable=1;deletable=1;editable=1;connectable=1;" vertex="1" parent="kNZhg2Wre565YQw0Qz7j-23">
          <mxGeometry y="370" width="610" height="8" as="geometry" />
        </mxCell>
        <mxCell id="kNZhg2Wre565YQw0Qz7j-26" value="Controls(functionToRunOnAxisUpdate, functionToRunOnAxisNamesUpdate, functionToRunOnMouseClick) {" style="text;align=left;verticalAlign=top;spacingLeft=4;spacingRight=4;overflow=hidden;rotatable=0;points=[[0,0.5],[1,0.5]];portConstraint=eastwest;rounded=0;shadow=0;html=0;" vertex="1" parent="kNZhg2Wre565YQw0Qz7j-23">
          <mxGeometry y="378" width="610" height="26" as="geometry" />
        </mxCell>
        <mxCell id="kNZhg2Wre565YQw0Qz7j-27" value="RenderUpdateControls(), resetMovement()" style="text;align=left;verticalAlign=top;spacingLeft=4;spacingRight=4;overflow=hidden;rotatable=0;points=[[0,0.5],[1,0.5]];portConstraint=eastwest;rounded=0;shadow=0;html=0;" vertex="1" parent="kNZhg2Wre565YQw0Qz7j-23">
          <mxGeometry y="404" width="610" height="26" as="geometry" />
        </mxCell>
        <mxCell id="kNZhg2Wre565YQw0Qz7j-29" value="setColourMod(), displayColourBounds()" style="text;align=left;verticalAlign=top;spacingLeft=4;spacingRight=4;overflow=hidden;rotatable=0;points=[[0,0.5],[1,0.5]];portConstraint=eastwest;rounded=0;shadow=0;html=0;" vertex="1" parent="kNZhg2Wre565YQw0Qz7j-23">
          <mxGeometry y="430" width="610" height="26" as="geometry" />
        </mxCell>
        <mxCell id="kNZhg2Wre565YQw0Qz7j-31" value="changeTabView(), changeTabData()" style="text;align=left;verticalAlign=top;spacingLeft=4;spacingRight=4;overflow=hidden;rotatable=0;points=[[0,0.5],[1,0.5]];portConstraint=eastwest;rounded=0;shadow=0;html=0;" vertex="1" parent="kNZhg2Wre565YQw0Qz7j-23">
          <mxGeometry y="456" width="610" height="26" as="geometry" />
        </mxCell>
        <mxCell id="kNZhg2Wre565YQw0Qz7j-33" value="ShowColourControls(x), selectDimensions()" style="text;align=left;verticalAlign=top;spacingLeft=4;spacingRight=4;overflow=hidden;rotatable=0;points=[[0,0.5],[1,0.5]];portConstraint=eastwest;rounded=0;shadow=0;html=0;" vertex="1" parent="kNZhg2Wre565YQw0Qz7j-23">
          <mxGeometry y="482" width="610" height="26" as="geometry" />
        </mxCell>
        <mxCell id="kNZhg2Wre565YQw0Qz7j-35" value="updateTabData(), updateSelectors()" style="text;align=left;verticalAlign=top;spacingLeft=4;spacingRight=4;overflow=hidden;rotatable=0;points=[[0,0.5],[1,0.5]];portConstraint=eastwest;rounded=0;shadow=0;html=0;" vertex="1" parent="kNZhg2Wre565YQw0Qz7j-23">
          <mxGeometry y="508" width="610" height="26" as="geometry" />
        </mxCell>
        <mxCell id="kNZhg2Wre565YQw0Qz7j-39" value="resetRotation(), changeTabHelp(event)" style="text;align=left;verticalAlign=top;spacingLeft=4;spacingRight=4;overflow=hidden;rotatable=0;points=[[0,0.5],[1,0.5]];portConstraint=eastwest;rounded=0;shadow=0;html=0;" vertex="1" parent="kNZhg2Wre565YQw0Qz7j-23">
          <mxGeometry y="534" width="610" height="26" as="geometry" />
        </mxCell>
        <mxCell id="kNZhg2Wre565YQw0Qz7j-38" value="Align(), fileInput()" style="text;align=left;verticalAlign=top;spacingLeft=4;spacingRight=4;overflow=hidden;rotatable=0;points=[[0,0.5],[1,0.5]];portConstraint=eastwest;rounded=0;shadow=0;html=0;" vertex="1" parent="kNZhg2Wre565YQw0Qz7j-23">
          <mxGeometry y="560" width="610" height="26" as="geometry" />
        </mxCell>
        <mxCell id="kNZhg2Wre565YQw0Qz7j-41" value="Zoom(event), setZoomMultiplier(), calculateCombinedZoom()" style="text;align=left;verticalAlign=top;spacingLeft=4;spacingRight=4;overflow=hidden;rotatable=0;points=[[0,0.5],[1,0.5]];portConstraint=eastwest;rounded=0;shadow=0;html=0;" vertex="1" parent="kNZhg2Wre565YQw0Qz7j-23">
          <mxGeometry y="586" width="610" height="26" as="geometry" />
        </mxCell>
        <mxCell id="kNZhg2Wre565YQw0Qz7j-44" value="ViewSize(), PointSize()" style="text;align=left;verticalAlign=top;spacingLeft=4;spacingRight=4;overflow=hidden;rotatable=0;points=[[0,0.5],[1,0.5]];portConstraint=eastwest;rounded=0;shadow=0;html=0;" vertex="1" parent="kNZhg2Wre565YQw0Qz7j-23">
          <mxGeometry y="612" width="610" height="26" as="geometry" />
        </mxCell>
        <mxCell id="kNZhg2Wre565YQw0Qz7j-49" value="Rotation(event), MoveSlice(event)" style="text;align=left;verticalAlign=top;spacingLeft=4;spacingRight=4;overflow=hidden;rotatable=0;points=[[0,0.5],[1,0.5]];portConstraint=eastwest;rounded=0;shadow=0;html=0;" vertex="1" parent="kNZhg2Wre565YQw0Qz7j-23">
          <mxGeometry y="638" width="610" height="26" as="geometry" />
        </mxCell>
        <mxCell id="kNZhg2Wre565YQw0Qz7j-46" value="MouseClick(event), MouseWheel(event), MouseMove(event)" style="text;align=left;verticalAlign=top;spacingLeft=4;spacingRight=4;overflow=hidden;rotatable=0;points=[[0,0.5],[1,0.5]];portConstraint=eastwest;rounded=0;shadow=0;html=0;" vertex="1" parent="kNZhg2Wre565YQw0Qz7j-23">
          <mxGeometry y="664" width="610" height="26" as="geometry" />
        </mxCell>
        <mxCell id="kNZhg2Wre565YQw0Qz7j-53" value="getMoveAxis(), getIndexValues(), getMouseClicks()&#xa;&#xa;getCombinedZoom(), getCurrentRotation(), getViewSize(), getPointSize(), getColourMod()" style="text;align=left;verticalAlign=top;spacingLeft=4;spacingRight=4;overflow=hidden;rotatable=0;points=[[0,0.5],[1,0.5]];portConstraint=eastwest;rounded=0;shadow=0;html=0;" vertex="1" parent="kNZhg2Wre565YQw0Qz7j-23">
          <mxGeometry y="690" width="610" height="70" as="geometry" />
        </mxCell>
        <mxCell id="kNZhg2Wre565YQw0Qz7j-54" value="" style="group" vertex="1" connectable="0" parent="WIyWlLk6GJQsqaUBKTNV-1">
          <mxGeometry x="238" y="680" width="230" height="110" as="geometry" />
        </mxCell>
        <mxCell id="kNZhg2Wre565YQw0Qz7j-55" value="" style="rounded=0;whiteSpace=wrap;html=1;fillColor=none;" vertex="1" parent="kNZhg2Wre565YQw0Qz7j-54">
          <mxGeometry width="230" height="90" as="geometry" />
        </mxCell>
        <mxCell id="kNZhg2Wre565YQw0Qz7j-56" value="fragment_1.glsl" style="shape=note;whiteSpace=wrap;html=1;backgroundOutline=1;darkOpacity=0.05;" vertex="1" parent="kNZhg2Wre565YQw0Qz7j-54">
          <mxGeometry x="10" y="10" width="100" height="70" as="geometry" />
        </mxCell>
        <mxCell id="kNZhg2Wre565YQw0Qz7j-57" value="vertex_1.glsl" style="shape=note;whiteSpace=wrap;html=1;backgroundOutline=1;darkOpacity=0.05;" vertex="1" parent="kNZhg2Wre565YQw0Qz7j-54">
          <mxGeometry x="120" y="10" width="100" height="70" as="geometry" />
        </mxCell>
        <mxCell id="kNZhg2Wre565YQw0Qz7j-58" value="" style="group" vertex="1" connectable="0" parent="WIyWlLk6GJQsqaUBKTNV-1">
          <mxGeometry x="480" y="680" width="230" height="110" as="geometry" />
        </mxCell>
        <mxCell id="kNZhg2Wre565YQw0Qz7j-59" value="" style="rounded=0;whiteSpace=wrap;html=1;fillColor=none;" vertex="1" parent="kNZhg2Wre565YQw0Qz7j-58">
          <mxGeometry width="230" height="90" as="geometry" />
        </mxCell>
        <mxCell id="kNZhg2Wre565YQw0Qz7j-60" value="fragment_2.glsl" style="shape=note;whiteSpace=wrap;html=1;backgroundOutline=1;darkOpacity=0.05;" vertex="1" parent="kNZhg2Wre565YQw0Qz7j-58">
          <mxGeometry x="10" y="10" width="100" height="70" as="geometry" />
        </mxCell>
        <mxCell id="kNZhg2Wre565YQw0Qz7j-61" value="vertex_2.glsl" style="shape=note;whiteSpace=wrap;html=1;backgroundOutline=1;darkOpacity=0.05;" vertex="1" parent="kNZhg2Wre565YQw0Qz7j-58">
          <mxGeometry x="120" y="10" width="100" height="70" as="geometry" />
        </mxCell>
        <mxCell id="kNZhg2Wre565YQw0Qz7j-62" value="" style="endArrow=classic;html=1;rounded=0;exitX=0;exitY=0.5;exitDx=0;exitDy=0;exitPerimeter=0;" edge="1" parent="WIyWlLk6GJQsqaUBKTNV-1" source="928VX1cfAJ5bRDj-DPxS-11">
          <mxGeometry width="50" height="50" relative="1" as="geometry">
            <mxPoint x="998" y="900" as="sourcePoint" />
            <mxPoint x="868" y="735" as="targetPoint" />
          </mxGeometry>
        </mxCell>
        <mxCell id="kNZhg2Wre565YQw0Qz7j-73" style="edgeStyle=orthogonalEdgeStyle;rounded=0;orthogonalLoop=1;jettySize=auto;html=1;exitX=0.5;exitY=1;exitDx=0;exitDy=0;entryX=1.01;entryY=0.18;entryDx=0;entryDy=0;entryPerimeter=0;" edge="1" parent="WIyWlLk6GJQsqaUBKTNV-1" source="kNZhg2Wre565YQw0Qz7j-55" target="kNZhg2Wre565YQw0Qz7j-69">
          <mxGeometry relative="1" as="geometry" />
        </mxCell>
        <mxCell id="kNZhg2Wre565YQw0Qz7j-74" style="edgeStyle=orthogonalEdgeStyle;rounded=0;orthogonalLoop=1;jettySize=auto;html=1;exitX=0.5;exitY=1;exitDx=0;exitDy=0;entryX=1.015;entryY=0.22;entryDx=0;entryDy=0;entryPerimeter=0;" edge="1" parent="WIyWlLk6GJQsqaUBKTNV-1" source="kNZhg2Wre565YQw0Qz7j-59" target="kNZhg2Wre565YQw0Qz7j-69">
          <mxGeometry relative="1" as="geometry" />
        </mxCell>
        <mxCell id="kNZhg2Wre565YQw0Qz7j-75" style="edgeStyle=orthogonalEdgeStyle;rounded=0;orthogonalLoop=1;jettySize=auto;html=1;exitX=1;exitY=0.75;exitDx=0;exitDy=0;entryX=-0.001;entryY=0.869;entryDx=0;entryDy=0;entryPerimeter=0;" edge="1" parent="WIyWlLk6GJQsqaUBKTNV-1" source="kNZhg2Wre565YQw0Qz7j-69" target="zkfFHV4jXpPFQw0GAbJ--1">
          <mxGeometry relative="1" as="geometry" />
        </mxCell>
        <mxCell id="kNZhg2Wre565YQw0Qz7j-76" style="edgeStyle=orthogonalEdgeStyle;rounded=0;orthogonalLoop=1;jettySize=auto;html=1;exitX=1;exitY=0.5;exitDx=0;exitDy=0;entryX=0.5;entryY=0;entryDx=0;entryDy=0;" edge="1" parent="WIyWlLk6GJQsqaUBKTNV-1" source="kNZhg2Wre565YQw0Qz7j-1" target="928VX1cfAJ5bRDj-DPxS-2">
          <mxGeometry relative="1" as="geometry" />
        </mxCell>
        <mxCell id="kNZhg2Wre565YQw0Qz7j-77" style="edgeStyle=orthogonalEdgeStyle;rounded=0;orthogonalLoop=1;jettySize=auto;html=1;exitX=1;exitY=0.5;exitDx=0;exitDy=0;entryX=0.357;entryY=0.003;entryDx=0;entryDy=0;entryPerimeter=0;" edge="1" parent="WIyWlLk6GJQsqaUBKTNV-1" source="ddMBwT2aPCV6fHb5aI7i-52" target="ddMBwT2aPCV6fHb5aI7i-48">
          <mxGeometry relative="1" as="geometry">
            <mxPoint x="530" y="1330" as="targetPoint" />
          </mxGeometry>
        </mxCell>
        <mxCell id="kNZhg2Wre565YQw0Qz7j-82" style="edgeStyle=orthogonalEdgeStyle;rounded=0;orthogonalLoop=1;jettySize=auto;html=1;exitX=1;exitY=0.5;exitDx=0;exitDy=0;entryX=0.002;entryY=0.371;entryDx=0;entryDy=0;entryPerimeter=0;" edge="1" parent="WIyWlLk6GJQsqaUBKTNV-1" source="kNZhg2Wre565YQw0Qz7j-24" target="kNZhg2Wre565YQw0Qz7j-69">
          <mxGeometry relative="1" as="geometry" />
        </mxCell>
      </root>
    </mxGraphModel>
  </diagram>
</mxfile>
